<?xml version="1.0" encoding="utf-8"?>
<!-- Tesla Cybertruck icon by Arthur Shlain from Usefulicons.com -->
<svg xmlns="http://www.w3.org/2000/svg" xmlns:xlink="http://www.w3.org/1999/xlink" xml:space="preserve" version="1.1" x="0px" y="0px" viewBox="0 0 100 100" width="400px" height="400px"><g style="fill: #ffffff"><path d="M62.5,32.5L42.5,30L5,45L5,62.5L10,65L12.521,65.42C12.743,70.747,17.119,75,22.5,75C27.158,75,31.06,71.811,32.172,67.5L62.828,67.5C63.94,71.811,67.842,75,72.5,75S81.06,71.811,82.172,67.5L82.5,67.5L92.5,62.5L95,37.5L62.5,32.5ZM43.489,37.682L61.464,39.929L80.906,42.92L20.681,46.805L43.489,37.682ZM22.5,70C19.743,70,17.5,67.757,17.5,65S19.743,60,22.5,60S27.5,62.243,27.5,65S25.257,70,22.5,70ZM72.5,70C69.743,70,67.5,67.757,67.5,65S69.743,60,72.5,60S77.5,62.243,77.5,65S75.257,70,72.5,70ZM81.108,59.811L77.5,55L67.5,55L63.75,60L31.25,60L27.5,55L17.5,55L15.069,58.241L12.5,57.813L12.5,52.344L86.455,47.573L85.449,57.64L81.108,59.811Z" stroke="none"></path></g></svg>